<?xml version="1.0" standalone="no"?>
<!DOCTYPE svg PUBLIC "-//W3C//DTD SVG 20010904//EN"
 "http://www.w3.org/TR/2001/REC-SVG-20010904/DTD/svg10.dtd">
<svg version="1.0" xmlns="http://www.w3.org/2000/svg"
 width="512.000000pt" height="512.000000pt" viewBox="0 0 512.000000 512.000000"
 preserveAspectRatio="xMidYMid meet">

<g transform="translate(0.000000,512.000000) scale(0.100000,-0.100000)"
fill="#000000" stroke="none">
<path d="M980 3523 c-147 -14 -251 -27 -350 -44 -227 -38 -507 -108 -521 -131
-14 -21 -11 -322 3 -336 7 -7 40 -12 79 -12 l66 0 12 -77 c32 -200 121 -597
152 -675 11 -26 1 -39 -205 -285 -119 -142 -216 -266 -216 -276 0 -56 116
-102 241 -95 117 7 168 37 315 187 l121 124 84 -42 c104 -51 166 -67 318 -81
243 -24 508 33 725 154 187 105 365 276 474 456 l39 65 184 26 c101 14 203 28
226 31 l42 6 47 -81 c256 -449 732 -705 1225 -657 152 14 214 30 318 81 l84
42 122 -124 c147 -150 197 -180 314 -187 125 -7 241 39 241 95 0 10 -97 134
-216 276 -206 246 -216 259 -205 285 31 78 120 475 152 675 l12 77 66 0 c39 0
72 5 79 12 14 14 17 315 3 336 -9 15 -130 50 -296 87 -288 64 -463 85 -757 92
-275 6 -447 -4 -672 -42 -132 -22 -197 -38 -486 -115 -100 -27 -132 -31 -240
-31 -108 0 -140 4 -240 31 -364 98 -516 128 -755 150 -101 9 -502 12 -585 3z
m595 -114 c215 -19 419 -58 642 -123 158 -46 217 -56 343 -56 126 0 185 10
343 56 279 82 465 113 796 134 330 21 782 -28 1132 -124 l84 -22 3 -82 3 -82
-56 0 c-80 0 -97 -20 -113 -130 -40 -267 -136 -660 -187 -769 -48 -100 -151
-204 -255 -255 -110 -54 -197 -70 -380 -70 -138 0 -167 3 -262 27 -220 57
-381 144 -536 291 -154 146 -251 308 -337 567 -50 150 -83 202 -148 236 -45
23 -139 20 -181 -6 -67 -42 -91 -82 -141 -230 -86 -259 -183 -421 -337 -567
-155 -147 -316 -234 -536 -291 -95 -24 -124 -27 -262 -27 -181 0 -267 16 -378
69 -103 49 -208 154 -257 256 -51 109 -147 502 -187 769 -16 110 -33 130 -113
130 l-56 0 3 82 3 82 84 22 c411 112 851 151 1286 113z m1052 -520 c18 -18
109 -256 100 -265 -1 -2 -72 -12 -157 -24 -85 -11 -165 -23 -177 -25 -21 -5
-19 2 27 141 49 146 67 179 105 195 29 12 76 2 102 -22z m-2074 -867 c20 -24
37 -47 37 -51 0 -17 -238 -240 -272 -254 -49 -21 -168 -27 -168 -9 0 5 75 98
167 207 166 198 167 198 182 175 9 -14 33 -44 54 -68z m4252 -109 c91 -108
165 -200 165 -205 0 -8 -39 -12 -100 -8 -62 3 -113 38 -230 155 l-114 115 22
27 c13 16 37 47 54 71 18 23 33 42 35 42 1 0 77 -88 168 -197z"/>
<path d="M1003 3279 c-166 -11 -316 -35 -366 -58 -66 -29 -123 -86 -156 -154
-48 -97 -49 -144 -6 -352 79 -389 118 -496 221 -605 123 -130 272 -177 534
-167 223 8 388 61 568 180 201 135 349 321 433 546 28 72 33 100 33 176 1 83
-2 96 -33 159 -37 76 -99 141 -163 174 -163 81 -660 128 -1065 101z m677 -124
c133 -17 307 -52 333 -67 37 -20 99 -83 120 -122 35 -65 30 -178 -11 -281 -50
-126 -125 -239 -226 -341 -102 -102 -149 -136 -264 -194 -251 -125 -595 -140
-779 -33 -57 33 -131 116 -158 178 -43 98 -145 541 -145 628 0 59 43 142 92
177 46 33 96 46 243 60 61 5 126 12 145 14 79 9 541 -4 650 -19z"/>
<path d="M1048 3110 c-10 -6 -18 -23 -18 -38 0 -57 1 -57 237 -59 217 -1 396
-17 576 -50 70 -12 97 -22 121 -44 28 -25 31 -33 31 -87 0 -65 15 -92 50 -92
51 0 76 78 51 163 -15 52 -64 111 -114 136 -27 14 -134 36 -282 57 -133 19
-627 30 -652 14z"/>
<path d="M3600 3280 c-136 -11 -364 -44 -446 -66 -129 -33 -210 -98 -265 -210
-31 -63 -34 -76 -33 -159 0 -76 5 -104 33 -176 129 -346 416 -604 778 -700
112 -30 337 -37 458 -15 129 24 219 71 299 156 103 110 143 218 222 608 42
211 41 257 -9 355 -39 75 -115 140 -190 162 -136 39 -602 64 -847 45z m675
-125 c83 -10 145 -23 173 -36 69 -34 122 -119 122 -198 0 -85 -103 -530 -145
-626 -27 -62 -101 -145 -158 -178 -139 -81 -397 -94 -611 -32 -93 27 -217 84
-294 137 -81 54 -224 207 -280 298 -82 133 -116 229 -116 325 -1 63 4 89 21
121 21 39 83 103 120 122 44 24 307 68 513 86 97 9 532 -4 655 -19z"/>
<path d="M3636 3107 c-23 -17 -24 -66 -3 -82 11 -8 87 -12 234 -13 124 0 279
-7 358 -16 128 -15 142 -18 163 -41 12 -15 22 -39 22 -55 0 -20 8 -35 25 -46
23 -15 27 -15 51 1 24 16 26 21 22 74 -5 66 -32 112 -81 138 -55 28 -308 52
-553 53 -168 0 -224 -3 -238 -13z"/>
</g>
</svg>
